<?xml version="1.0" encoding="utf-8"?>
<?xml-stylesheet type="text/xsl" href="rss1.xsl"?>
<rss version="2.0" xmlns:atom="http://www.w3.org/2005/Atom" xmlns:content="http://purl.org/rss/1.0/modules/content/" xmlns:dc="http://purl.org/dc/elements/1.1/" xmlns:media="http://search.yahoo.com/mrss/">
<channel>
 <title>Getty</title>
 <link>http://www.gettyimg.com/</link>
 <atom:link href="http://www.gettyimg.com/" rel="self" type="application/rss+xml" />

 
                <item>
                <title><![CDATA[【YOUTUBE】WEB-RiP - Miranda! - Prisionero (Official 4K Remastered) [2170p.VP9]]]></title>
                <link><![CDATA[https://sharemania.us/threads/miranda-prisionero-official-4k-remastered-2170p-vp9.234913/]]></link>
                <description><![CDATA[<article>
<blockquote class="messageText SelectQuoteContainer ugc baseHtml">
<div style="text-align: center"><img src="https://i.postimg.cc/k5M2DHHb/Miranda-Prisionero-Official-4-K-Remastered-mkv-thumbs1.png" class="bbCodeImage LbImage" alt="[​IMG]" data-url="https://i.postimg.cc/k5M2DHHb/Miranda-Prisionero-Official-4-K-Remastered-mkv-thumbs1.png" style=""><br>
<a href="https://www.youtube.com/watch?v=JWbHfQWNskU&amp;pp=ygUibWlyYW5kYSEgcHJpc2lvbmVybyByZW1hc3Rlcml6YWRvIA%3D%3D" target="_blank" class="externalLink" rel="nofollow"><img src="https://i.postimg.cc/Cxfp8Rm0/i-AG-svg-1-1.png" class="bbCodeImage LbImage" alt="[​IMG]" data-url="https://i.postimg.cc/Cxfp8Rm0/i-AG-svg-1-1.png"></a><br>
<b><span style="font-family: 'Verdana'"><span style="font-size: 22px"><span style="color: rgb(64, 64, 64)">Prisionero (Official 4K Remastered)</span><br>
<span style="color: rgb(0, 0, 0)">Miranda!</span></span></span></b><br>
<span style="font-family: 'Arial'"><span style="font-size: 15px"><span style="color: rgb(128, 128, 128)"><b>Pop · 2007</b><br>
<b>Audio: [ Opus (Original) - FLAC, AAC (<a href="https://play.qobuz.com/album/jdnbe401f4acc" target="_blank" class="externalLink" rel="nofollow">Qobuz</a>) ] SRT: [ Spanish (<a href="https://genius.com/Miranda-prisionero-lyrics" target="_blank" class="externalLink" rel="nofollow">Lyrics</a>) ]</b></span></span></span><br>
<div class="ToggleTriggerAnchor bbCodeSpoilerContainer">
<button type="button" class="button bbCodeSpoilerButton ToggleTrigger Tooltip JsOnly" data-target="> .SpoilerTarget"><span>Spoiler: <span class="SpoilerTitle">MediaInfo</span></span></button>
<div class="SpoilerTarget bbCodeSpoilerText"><b>General</b><br>
Format : Matroska<br>
Format version : Version 4<br>
File size : 305 MiB<br>
Duration : 3 min 30 s<br>
Overall bit rate mode : Variable<br>
Overall bit rate : 12.2 Mb/s<br>
Movie name : Miranda! - Prisionero - Video Remasterizado<br>
Encoded date : UTC 2023-12-29 03:30:09<br>
Writing application : mkvmerge v81.0 ('Milliontown') 64-bit<br>
Writing library : libebml v1.4.4 + libmatroska v1.7.1 / Lavf59.16.100<br>
<b>Video</b><br>
ID : 1<br>
Format : VP9<br>
Codec ID : V_VP9<br>
Duration : 3 min 30 s<br>
Bit rate : 10.6 Mb/s<br>
Width : 2 880 pixels<br>
Height : 2 160 pixels<br>
Display aspect ratio : 4:3<br>
Frame rate mode : Variable<br>
Frame rate : 29.970 (29970/1000) FPS<br>
Color space : YUV<br>
Bits/(Pixel*Frame) : 0.057<br>
Stream size : 266 MiB (87%)<br>
Default : Yes<br>
Forced : No<br>
Color range : Limited<br>
Color primaries : BT.709<br>
Transfer characteristics : BT.709<br>
Matrix coefficients : BT.709<br>
<b>Audio #1</b><br>
ID : 2<br>
Format : Opus<br>
Codec ID : A_OPUS<br>
Duration : 3 min 30 s<br>
Bit rate : 137 kb/s<br>
Channel(s) : 2 channels<br>
Channel layout : L R<br>
Sampling rate : 48.0 kHz<br>
Frame rate : 50.003 FPS (960 SPF)<br>
Bit depth : 32 bits<br>
Compression mode : Lossy<br>
Stream size : 3.43 MiB (1%)<br>
Title : [OPUS - 137 kb/s]<br>
Default : Yes<br>
Forced : No<br>
<b>Audio #2</b><br>
ID : 3<br>
Format : AAC LC<br>
Format/Info : Advanced Audio Codec Low Complexity<br>
Codec ID : A_AAC-2<br>
Duration : 3 min 30 s<br>
Bit rate : 332 kb/s<br>
Channel(s) : 2 channels<br>
Channel layout : L R<br>
Sampling rate : 48.0 kHz<br>
Frame rate : 46.875 FPS (1024 SPF)<br>
Compression mode : Lossy<br>
Stream size : 8.32 MiB (3%)<br>
Title : [AAC - 332 kb/s]<br>
Default : Yes<br>
Forced : No<br>
<b>Audio #3</b><br>
ID : 4<br>
Format : FLAC<br>
Format/Info : Free Lossless Audio Codec<br>
Codec ID : A_FLAC<br>
Duration : 3 min 30 s<br>
Bit rate mode : Variable<br>
Bit rate : 1 071 kb/s<br>
Channel(s) : 2 channels<br>
Channel layout : L R<br>
Sampling rate : 48.0 kHz<br>
Frame rate : 11.723 FPS (4095 SPF)<br>
Bit depth : 16 bits<br>
Compression mode : Lossless<br>
Stream size : 26.8 MiB (9%)<br>
Title : [FLAC - 1071 kb/s]<br>
Writing library : libFLAC 1.3.2 (UTC 2019-08-04)<br>
Default : Yes<br>
Forced : No<br>
MD5 of the unencoded content : B61F188DFD91FB0B96ACDD565BC9A79D<br>
<b>Text</b><br>
ID : 5<br>
Format : UTF-8<br>
Codec ID : S_TEXT/UTF8<br>
Codec ID/Info : UTF-8 Plain Text<br>
Duration : 3 min 12 s<br>
Bit rate : 54 b/s<br>
Frame rate : 0.187 FPS<br>
Count of elements : 36<br>
Stream size : 1.27 KiB (0%)<br>
Title : Lyrics<br>
Language : Spanish<br>
Default : No<br>
Forced : No</div>
</div>© Pelo Music<br>
<span style="font-size: 12px">Total length: 03:30<br>
</span>
<div class="bbCodeBlock bbCodeVfcHH HiddenContent">
<div class="attribution type">Hidden Content:</div>
<blockquote>You must either reply or click 'Like' to see the hidden information contained here.</blockquote>
</div><i><b><span style="text-decoration: underline"><span style="font-family: 'Arial'"><span style="font-size: 18px">IF THE FILES ARE DELETED OR MISSING DO NOT HESITATE TO CONTACT ME.</span></span></span></b></i>​</div>
<div class="messageTextEndMarker">&nbsp;</div>
</blockquote>
</article>]]></description>
                <author><![CDATA[mmmmmaaaaxxxxx]]></author>
                </item>

                </channel></rss>